<svg fill="none" viewBox="0 0 1024 1024" xmlns="http://www.w3.org/2000/svg">
  <defs>
    <filter id="root-elevation" x="-12%" y="-8%" width="124%" height="128%" color-interpolation-filters="sRGB">
      <feDropShadow dx="0" dy="8" stdDeviation="12" flood-color="#020617" flood-opacity="0.42" />
    </filter>
    <linearGradient id="bg" x1="512" x2="512" y1="72" y2="952" gradientUnits="userSpaceOnUse">
      <stop offset="0" stop-color="#0A1020" />
      <stop offset="1" stop-color="#121C33" />
    </linearGradient>
    <linearGradient id="panel" x1="512" x2="512" y1="66" y2="958" gradientUnits="userSpaceOnUse">
      <stop offset="0" stop-color="#1A2C4D" />
      <stop offset="0.42" stop-color="#162844" />
      <stop offset="1" stop-color="#111D35" />
    </linearGradient>
    <linearGradient id="blue" x1="106" x2="411" y1="109" y2="427" gradientUnits="userSpaceOnUse">
      <stop offset="0" stop-color="#5D88FF" />
      <stop offset="1" stop-color="#3158D6" />
    </linearGradient>
    <linearGradient id="paper" x1="613" x2="918" y1="109" y2="427" gradientUnits="userSpaceOnUse">
      <stop offset="0" stop-color="#FFF9EE" />
      <stop offset="1" stop-color="#DDD9D1" />
    </linearGradient>
    <linearGradient id="teal" x1="106" x2="411" y1="597" y2="915" gradientUnits="userSpaceOnUse">
      <stop offset="0" stop-color="#2FD6C1" />
      <stop offset="1" stop-color="#149685" />
    </linearGradient>
    <linearGradient id="violet" x1="613" x2="918" y1="597" y2="915" gradientUnits="userSpaceOnUse">
      <stop offset="0" stop-color="#8A67FF" />
      <stop offset="1" stop-color="#5D3AC8" />
    </linearGradient>
  </defs>
  <rect width="1024" height="1024" rx="116" fill="url(#bg)" />
  <rect x="48" y="48" width="928" height="928" rx="116" fill="url(#panel)" filter="url(#root-elevation)" />
  <rect x="80" y="80" width="416" height="416" rx="116" fill="url(#blue)" />
  <rect x="80" y="528" width="416" height="416" rx="116" fill="url(#teal)" />
  <rect x="528" y="528" width="416" height="416" rx="116" fill="url(#violet)" />
  <rect x="528" y="80" width="416" height="416" rx="116" fill="url(#paper)" />
  <path d="M816 80H820C889 80 944 135 944 202V206L816 80Z" fill="white" fill-opacity="0.92" />
  <path d="M794 80H816L944 202V230L794 80Z" fill="#C9C3B7" fill-opacity="0.74" />
</svg>
